<mxfile host="app.diagrams.net" modified="2024-01-18T13:28:45.183Z" agent="Mozilla/5.0 (Windows NT 10.0; Win64; x64) AppleWebKit/537.36 (KHTML, like Gecko) Chrome/120.0.0.0 Safari/537.36 Edg/120.0.0.0" version="22.1.21" etag="WEs6qp1WynthXNchouk_" type="github">
  <diagram name="第 1 页" id="UpYH2j41Lx2W7Z5tdkqJ">
    <mxGraphModel>
      <root>
        <mxCell id="0" />
        <mxCell id="1" parent="0" />
      </root>
    </mxGraphModel>
  </diagram>
</mxfile>
